<svg xmlns="http://www.w3.org/2000/svg" style="display:none"><symbol id="facebook" viewbox="0 0 408.788 408.788"><path d="M353.701 0H55.087C24.665 0 .002 24.662.002 55.085v298.616c0 30.423 24.662 55.085 55.085 55.085h147.275l.251-146.078h-37.951a8.954 8.954 0 0 1-8.954-8.92l-.182-47.087a8.955 8.955 0 0 1 8.955-8.989h37.882v-45.498c0-52.8 32.247-81.55 79.348-81.55h38.65a8.955 8.955 0 0 1 8.955 8.955v39.704a8.955 8.955 0 0 1-8.95 8.955l-23.719.011c-25.615 0-30.575 12.172-30.575 30.035v39.389h56.285c5.363 0 9.524 4.683 8.892 10.009l-5.581 47.087a8.955 8.955 0 0 1-8.892 7.901h-50.453l-.251 146.078h87.631c30.422 0 55.084-24.662 55.084-55.084V55.085C408.786 24.662 384.124 0 353.701 0z" fill="#475993"/></symbol><symbol id="instagram" viewbox="0 0 300 300"><path d="M38.52.012h222.978C282.682.012 300 17.336 300 38.52v222.978c0 21.178-17.318 38.49-38.502 38.49H38.52c-21.184 0-38.52-17.313-38.52-38.49V38.52C0 17.336 17.336.012 38.52.012zm180.026 33.317c-7.438 0-13.505 6.091-13.505 13.525v32.314c0 7.437 6.067 13.514 13.505 13.514h33.903c7.426 0 13.506-6.077 13.506-13.514V46.854c0-7.434-6.08-13.525-13.506-13.525h-33.903zm47.538 93.539h-26.396a87.715 87.715 0 0 1 3.86 25.759c0 49.882-41.766 90.34-93.266 90.34-51.487 0-93.254-40.458-93.254-90.34 0-8.963 1.37-17.584 3.861-25.759H33.35V253.6c0 6.563 5.359 11.902 11.916 11.902h208.907c6.563 0 11.911-5.339 11.911-11.902V126.868zm-115.801-35.89c-33.26 0-60.24 26.128-60.24 58.388 0 32.227 26.98 58.375 60.24 58.375 33.278 0 60.259-26.148 60.259-58.375 0-32.261-26.981-58.388-60.259-58.388z"/></symbol><symbol id="menu-1" viewbox="0 0 24 24"><path d="M24 3c0-.6-.4-1-1-1H1c-.6 0-1 .4-1 1v2c0 .6.4 1 1 1h22c.6 0 1-.4 1-1V3zM24 11c0-.6-.4-1-1-1H1c-.6 0-1 .4-1 1v2c0 .6.4 1 1 1h22c.6 0 1-.4 1-1v-2zM24 19c0-.6-.4-1-1-1H1c-.6 0-1 .4-1 1v2c0 .6.4 1 1 1h22c.6 0 1-.4 1-1v-2z"/></symbol><symbol id="menu-2" viewbox="0 0 92.833 92.833"><path d="M89.834 1.75H3c-1.654 0-3 1.346-3 3v13.334c0 1.654 1.346 3 3 3h86.833c1.653 0 3-1.346 3-3V4.75a3.002 3.002 0 0 0-2.999-3zM89.834 36.75H3c-1.654 0-3 1.346-3 3v13.334c0 1.654 1.346 3 3 3h86.833c1.653 0 3-1.346 3-3V39.75a3.002 3.002 0 0 0-2.999-3zM89.834 71.75H3c-1.654 0-3 1.346-3 3v13.334c0 1.654 1.346 3 3 3h86.833c1.653 0 3-1.346 3-3V74.75a3.002 3.002 0 0 0-2.999-3z"/></symbol><symbol id="menu" viewbox="0 0 512 512"><g fill="#3d6deb"><path d="M460.8 0H51.2C22.924 0 0 22.924 0 51.2s22.924 51.2 51.2 51.2h409.6c28.276 0 51.2-22.924 51.2-51.2S489.076 0 460.8 0zM460.8 204.8H51.2C22.924 204.8 0 227.724 0 256c0 28.276 22.924 51.2 51.2 51.2h409.6c28.276 0 51.2-22.924 51.2-51.2 0-28.276-22.924-51.2-51.2-51.2zM460.8 409.6H51.2C22.924 409.6 0 432.524 0 460.8 0 489.076 22.924 512 51.2 512h409.6c28.276 0 51.2-22.924 51.2-51.2 0-28.276-22.924-51.2-51.2-51.2z"/></g></symbol><symbol id="vk" viewbox="0 0 512 512"><path d="M440.649 295.361c16.984 16.582 34.909 32.182 50.142 50.436 6.729 8.112 13.099 16.482 17.973 25.896 6.906 13.382.651 28.108-11.348 28.907l-74.59-.034c-19.238 1.596-34.585-6.148-47.489-19.302-10.327-10.519-19.891-21.714-29.821-32.588-4.071-4.444-8.332-8.626-13.422-11.932-10.182-6.609-19.021-4.586-24.84 6.034-5.926 10.802-7.271 22.762-7.853 34.8-.799 17.564-6.108 22.182-23.751 22.986-37.705 1.778-73.489-3.926-106.732-22.947-29.308-16.768-52.034-40.441-71.816-67.24-38.513-52.183-68.008-109.525-94.516-168.473-5.967-13.281-1.603-20.41 13.051-20.663 24.333-.473 48.663-.439 73.025-.034 9.89.145 16.437 5.817 20.256 15.16 13.165 32.371 29.274 63.169 49.494 91.716 5.385 7.6 10.876 15.201 18.694 20.55 8.65 5.923 15.236 3.96 19.305-5.676 2.582-6.11 3.713-12.691 4.295-19.234 1.928-22.513 2.182-44.988-1.199-67.422-2.076-14.001-9.962-23.065-23.933-25.714-7.129-1.351-6.068-4.004-2.616-8.073 5.995-7.018 11.634-11.387 22.875-11.387h84.298c13.271 2.619 16.218 8.581 18.035 21.934l.072 93.637c-.145 5.169 2.582 20.51 11.893 23.931 7.452 2.436 12.364-3.526 16.836-8.251 20.183-21.421 34.588-46.737 47.457-72.951 5.711-11.527 10.622-23.497 15.381-35.458 3.526-8.875 9.059-13.242 19.056-13.049l81.132.072c2.406 0 4.84.035 7.17.434 13.671 2.33 17.418 8.211 13.195 21.561-6.653 20.945-19.598 38.4-32.255 55.935-13.53 18.721-28.001 36.802-41.418 55.634-12.328 17.2-11.349 25.868 3.964 40.805z" fill="#436eab"/></symbol></svg>